<?xml version="1.0" encoding="UTF-8" standalone="no"?>
<svg viewBox="0 0 763.90002 175.0333" version="1.1" id="svg6865" sodipodi:docname="BuiltWithNativePHP-Logo-2023-08-02.svg" width="763.90002" height="175.03329" inkscape:version="1.2.2 (732a01da63, 2022-12-09)" inkscape:export-filename="BuiltWithNativePHP-Logo-2023-08-02.png" inkscape:export-xdpi="100.53671" inkscape:export-ydpi="100.53671" xmlns:inkscape="http://www.inkscape.org/namespaces/inkscape" xmlns:sodipodi="http://sodipodi.sourceforge.net/DTD/sodipodi-0.dtd" xmlns="http://www.w3.org/2000/svg" xmlns:svg="http://www.w3.org/2000/svg">
  <defs id="defs6869" />
  <sodipodi:namedview id="namedview6867" pagecolor="#ffffff" bordercolor="#666666" borderopacity="1.0" inkscape:showpageshadow="2" inkscape:pageopacity="0.0" inkscape:pagecheckerboard="0" inkscape:deskcolor="#d1d1d1" showgrid="false" inkscape:zoom="0.55300563" inkscape:cx="40.686747" inkscape:cy="208.85863" inkscape:window-width="1366" inkscape:window-height="697" inkscape:window-x="-8" inkscape:window-y="-8" inkscape:window-maximized="1" inkscape:current-layer="svg6865" />
  <path fill="#505b93" d="M 29.5,173.3333 H 1.449585e-7 V 76.133299 H 29.5 Z" id="path6857" />
  <path fill="#272d48" d="M 96.7,173.3333 H 29.5 V 76.133299 Z" id="path6859" />
  <path fill="#00aaa6" d="M 96.7,173.3333 H 67.2 V 76.133299 h 29.5 z" id="path6861" />
  <path fill="#272d48" d="m 102.6,129.4333 c 0,-6.2 1.3,-11.8 4.1,-16.7 c 2.7,-5 6.7,-8.8 11.9,-11.6 c 5.2,-2.800001 11.4,-4.200001 18.6,-4.200001 c 1.1,0 2.8,0.1 5.2,0.3 c 4.9,0.4 9.1,1.3 12.5,2.800001 c 3.4,1.5 6.4,3.4 9.1,5.9 v -7.200001 h 25.8 V 173.4333 H 164 v -7.2 c -2.5,2.6 -5.6,4.6 -9.4,6.1 c -3.8,1.5 -7.9,2.4 -12.1,2.6 c -0.9,0.1 -2.3,0.1 -4.1,0.1 c -7.2,0 -13.4,-1.4 -18.8,-4.1 c -5.4,-2.7 -9.5,-6.6 -12.4,-11.5 c -2.9,-4.9 -4.3,-10.5 -4.3,-16.6 v -13.4 z m 25.8,9.4 c 0,9.2 5.9,13.8 17.7,13.8 c 11.8,0 17.7,-4.6 17.7,-13.8 v -5.6 c 0,-9.3 -5.9,-14 -17.7,-14 c -11.8,0 -17.7,4.7 -17.7,14 z m 79.9,34.5 v -51.4 H 195.5 V 98.633299 l 12.8,-0.2 v -22.3 h 25.9 l 0.1,22.4 h 18.3 V 121.9333 h -18.4 v 51.4 m 53.1,0 H 261.4 V 98.533299 h 25.9 V 135.9333 Z m 63.7,0 H 325 L 294,98.533299 h 26 l 18,44.400001 l 18,-44.500001 h 25.9 z m 103.9,-10.8 c -4.1,4.2 -8.8,7.3 -14.1,9.3 c -5.3,2 -11.8,2.9 -19.5,2.9 c -8,0 -15.1,-1.4 -21.3,-4.2 c -6.2,-2.8 -11.1,-6.7 -14.7,-11.6 c -3.5,-5 -5.3,-10.6 -5.3,-17 v -12.4 c 0,-6.5 1.7,-12.2 5.2,-17.1 c 3.4,-4.9 8.2,-8.7 14.2,-11.3 c 6,-2.700001 12.7,-4.000001 20,-4.000001 c 8,0 15,1.5 21.2,4.300001 c 6.1,2.9 10.9,7 14.4,12.4 c 3.4,5.4 5.2,11.6 5.2,18.7 c 0,1.7 -0.2,4.2 -0.7,7.7 l -54.2,0.1 v 2.1 c 0,4.1 1.5,7.3 4.4,9.4 c 2.9,2.2 6.9,3.2 11.8,3.2 c 4.6,0 8.5,-0.6 11.8,-1.8 c 3.2,-1.2 6.4,-3.5 9.4,-6.8 z m -20.5,-36.2 c 0,-3.1 -1.4,-5.5 -4.2,-7.1 c -2.8,-1.6 -6.4,-2.4 -10.8,-2.4 c -4.4,0 -7.9,0.8 -10.5,2.4 c -2.6,1.6 -3.8,4 -3.8,7.1 z m 31.6,47 V 76.133299 h 56 c 9.9,0 17.8,1.9 23.7,5.6 c 5.9,3.7 10,8.2 12.2,13.3 c 2.3,5.100001 3.4,10.100001 3.4,15.000001 c 0,4.8 -1.2,9.7 -3.5,14.7 c -2.3,5 -6.4,9.2 -12.2,12.8 c -5.8,3.6 -13.7,5.4 -23.7,5.4 h -30.2 v 30.5 H 466 Z m 56,-53.8 c 9,0 13.6,-3.3 13.6,-9.9 c 0,-6.9 -4.6,-10.300001 -13.7,-10.300001 H 491.8 V 119.5333 Z m 71,53.8 H 567.2 V 76.133299 H 593 V 114.1333 h 43.9 V 76.133299 h 25.8 V 173.3333 h -25.8 v -38.5 H 593 Z m 75.6,0 V 76.133299 h 56 c 9.9,0 17.8,1.9 23.7,5.6 c 5.9,3.7 10,8.2 12.2,13.3 c 2.3,5.100001 3.4,10.100001 3.4,15.000001 c 0,4.8 -1.2,9.7 -3.5,14.7 c -2.3,5 -6.4,9.2 -12.2,12.8 c -5.8,3.6 -13.7,5.4 -23.7,5.4 h -30.2 v 30.5 h -25.7 z m 56,-53.8 c 9,0 13.6,-3.3 13.6,-9.9 c 0,-6.9 -4.6,-10.300001 -13.7,-10.300001 H 694.4 V 119.5333 Z M 291.1,95.133299 h -33.5 v -20.2 h 33.5 z" id="path6863" sodipodi:nodetypes="ccsscsccccccscssssccssssssscccccccccccccccccccccccccccssscssccsccsccscsccccsssccccsscssssccccsssccscccccccccccccccsscssssccccsssccsccccc" />
  <text xml:space="preserve" style="font-size:85.3333px;line-height:1.25;font-family:'IBM Plex Sans Arabic';-inkscape-font-specification:'IBM Plex Sans Arabic';fill:#ff0000" x="-7.5093303" y="65.279976" id="text7509"><tspan sodipodi:role="line" id="tspan7507" x="-7.5093303" y="65.279976" style="font-style:normal;font-variant:normal;font-weight:normal;font-stretch:normal;font-family:'JetBrains Mono';-inkscape-font-specification:'JetBrains Mono'">built with</tspan></text>
</svg>
